<svg xmlns="http://www.w3.org/2000/svg" xmlns:xlink="http://www.w3.org/1999/xlink" width="1366" zoomAndPan="magnify" viewBox="0 0 1024.5 576" height="768" preserveAspectRatio="xMidYMid meet" version="1.0"><defs><clipPath id="ab9202fecd"><path d="M 21.773438 20.019531 L 179.617188 20.019531 L 179.617188 177.867188 L 21.773438 177.867188 Z M 21.773438 20.019531 " clip-rule="nonzero"/></clipPath></defs><g clip-path="url(#ab9202fecd)"><path fill="#d4af37" d="M 122.144531 47.035156 C 122.285156 47.375 122.679688 47.535156 123.019531 47.394531 C 123.363281 47.253906 123.523438 46.863281 123.382812 46.519531 C 123.242188 46.179688 122.851562 46.015625 122.507812 46.15625 C 122.167969 46.300781 122.003906 46.691406 122.144531 47.035156 Z M 111.902344 47.394531 C 112.246094 47.539062 112.636719 47.375 112.78125 47.035156 C 112.921875 46.691406 112.757812 46.300781 112.417969 46.160156 C 112.074219 46.015625 111.683594 46.179688 111.539062 46.519531 C 111.398438 46.863281 111.5625 47.253906 111.902344 47.394531 Z M 121.992188 45.386719 C 122.257812 45.128906 122.257812 44.703125 121.992188 44.441406 C 121.730469 44.179688 121.308594 44.179688 121.046875 44.441406 C 120.785156 44.703125 120.785156 45.125 121.046875 45.390625 C 121.308594 45.652344 121.730469 45.648438 121.992188 45.386719 Z M 113.878906 45.390625 C 114.140625 45.128906 114.140625 44.703125 113.878906 44.441406 C 113.617188 44.179688 113.191406 44.179688 112.929688 44.441406 C 112.667969 44.703125 112.667969 45.125 112.929688 45.386719 C 113.191406 45.648438 113.617188 45.648438 113.878906 45.390625 Z M 117.464844 52.339844 C 119.320312 52.339844 120.828125 50.832031 120.828125 48.972656 C 120.828125 47.113281 119.320312 45.609375 117.464844 45.609375 C 115.605469 45.609375 114.097656 47.113281 114.097656 48.972656 C 114.097656 50.832031 115.605469 52.339844 117.464844 52.339844 Z M 117.464844 43.90625 C 117.832031 43.90625 118.132812 43.601562 118.132812 43.234375 C 118.132812 42.863281 117.832031 42.5625 117.460938 42.5625 C 117.089844 42.566406 116.792969 42.863281 116.792969 43.234375 C 116.792969 43.601562 117.09375 43.902344 117.464844 43.90625 Z M 115.523438 44.289062 C 115.863281 44.148438 116.027344 43.757812 115.882812 43.414062 C 115.742188 43.074219 115.351562 42.910156 115.007812 43.050781 C 114.667969 43.195312 114.507812 43.585938 114.644531 43.925781 C 114.785156 44.269531 115.179688 44.429688 115.523438 44.289062 Z M 119.402344 44.289062 C 119.742188 44.429688 120.136719 44.269531 120.277344 43.925781 C 120.417969 43.585938 120.257812 43.191406 119.914062 43.050781 C 119.570312 42.910156 119.183594 43.074219 119.039062 43.414062 C 118.898438 43.753906 119.0625 44.148438 119.402344 44.289062 Z M 117.464844 54.042969 C 117.09375 54.042969 116.792969 54.34375 116.792969 54.710938 C 116.792969 55.082031 117.09375 55.382812 117.464844 55.382812 C 117.832031 55.382812 118.132812 55.082031 118.132812 54.710938 C 118.132812 54.34375 117.832031 54.042969 117.464844 54.042969 Z M 123.023438 50.550781 C 122.679688 50.410156 122.289062 50.570312 122.144531 50.914062 C 122.003906 51.253906 122.167969 51.648438 122.507812 51.789062 C 122.851562 51.929688 123.242188 51.765625 123.382812 51.425781 C 123.523438 51.082031 123.363281 50.691406 123.023438 50.550781 Z M 112.929688 52.558594 C 112.667969 52.820312 112.667969 53.246094 112.929688 53.507812 C 113.191406 53.769531 113.617188 53.765625 113.878906 53.507812 C 114.140625 53.246094 114.140625 52.820312 113.878906 52.558594 C 113.617188 52.296875 113.191406 52.296875 112.929688 52.558594 Z M 112.78125 50.914062 C 112.636719 50.570312 112.246094 50.410156 111.902344 50.550781 C 111.5625 50.691406 111.398438 51.085938 111.542969 51.425781 C 111.683594 51.769531 112.074219 51.929688 112.417969 51.789062 C 112.757812 51.648438 112.917969 51.253906 112.78125 50.914062 Z M 115.523438 53.65625 C 115.183594 53.515625 114.789062 53.679688 114.648438 54.019531 C 114.503906 54.359375 114.667969 54.753906 115.011719 54.894531 C 115.351562 55.039062 115.742188 54.875 115.886719 54.53125 C 116.027344 54.191406 115.863281 53.800781 115.523438 53.65625 Z M 127.21875 51.070312 C 128.378906 51.070312 129.316406 50.132812 129.316406 48.972656 C 129.316406 47.816406 128.378906 46.875 127.21875 46.875 C 126.058594 46.875 125.121094 47.816406 125.121094 48.972656 C 125.121094 50.132812 126.058594 51.070312 127.21875 51.070312 Z M 121.046875 52.558594 C 120.785156 52.820312 120.785156 53.242188 121.046875 53.507812 C 121.308594 53.765625 121.734375 53.765625 121.996094 53.507812 C 122.257812 53.242188 122.257812 52.820312 121.996094 52.558594 C 121.734375 52.296875 121.308594 52.296875 121.046875 52.558594 Z M 133.570312 50.332031 C 135.382812 50.332031 179.617188 48.972656 179.617188 48.972656 C 179.617188 48.972656 135.382812 47.617188 133.570312 47.617188 C 131.753906 47.617188 131.75 48.972656 131.75 48.972656 C 131.75 48.972656 131.753906 50.332031 133.570312 50.332031 Z M 119.402344 53.65625 C 119.0625 53.796875 118.898438 54.191406 119.039062 54.53125 C 119.183594 54.875 119.574219 55.039062 119.914062 54.894531 C 120.257812 54.753906 120.417969 54.359375 120.277344 54.019531 C 120.136719 53.679688 119.742188 53.515625 119.402344 53.65625 Z M 82.59375 54.679688 C 83.980469 53.292969 85.222656 52.363281 86.414062 51.878906 C 87.746094 53.574219 88.300781 56.097656 88.300781 59.683594 C 88.300781 56.097656 88.855469 53.574219 90.1875 51.878906 C 91.378906 52.363281 92.621094 53.292969 94.003906 54.679688 C 92.621094 53.292969 91.691406 52.050781 91.207031 50.859375 C 92.789062 49.613281 95.101562 49.046875 98.328125 48.980469 C 100.507812 49.015625 102.066406 49.386719 103.128906 50.21875 C 102.808594 51.007812 102.195312 51.828125 101.28125 52.742188 C 102.195312 51.828125 103.015625 51.210938 103.804688 50.894531 C 104.683594 52.011719 105.050781 53.679688 105.050781 56.050781 C 105.050781 53.679688 105.414062 52.011719 106.292969 50.894531 C 107.082031 51.210938 107.902344 51.828125 108.816406 52.742188 C 107.902344 51.828125 107.289062 51.007812 106.96875 50.21875 C 108.089844 49.339844 109.757812 48.972656 112.128906 48.972656 C 109.757812 48.972656 108.089844 48.605469 106.96875 47.726562 C 107.289062 46.9375 107.902344 46.117188 108.816406 45.203125 C 107.902344 46.117188 107.082031 46.734375 106.296875 47.050781 C 105.414062 45.933594 105.050781 44.265625 105.050781 41.898438 C 105.050781 44.265625 104.683594 45.933594 103.800781 47.050781 C 103.015625 46.734375 102.195312 46.117188 101.28125 45.203125 C 102.195312 46.117188 102.808594 46.9375 103.128906 47.726562 C 102.066406 48.5625 100.507812 48.929688 98.328125 48.964844 C 95.101562 48.898438 92.792969 48.332031 91.207031 47.085938 C 91.691406 45.894531 92.621094 44.652344 94.007812 43.269531 C 92.621094 44.652344 91.378906 45.582031 90.1875 46.066406 C 88.855469 44.371094 88.300781 41.847656 88.300781 38.261719 C 88.300781 41.847656 87.746094 44.371094 86.414062 46.066406 C 85.222656 45.582031 83.980469 44.652344 82.59375 43.269531 C 83.980469 44.652344 84.910156 45.894531 85.390625 47.085938 C 83.699219 48.417969 81.171875 48.972656 77.585938 48.972656 C 81.175781 48.972656 83.699219 49.527344 85.390625 50.859375 C 84.910156 52.050781 83.980469 53.292969 82.59375 54.679688 Z M 53.539062 110.664062 C 53.683594 110.320312 53.519531 109.929688 53.179688 109.789062 C 52.835938 109.644531 52.445312 109.808594 52.304688 110.152344 C 52.164062 110.492188 52.324219 110.886719 52.667969 111.027344 C 53.007812 111.167969 53.402344 111.003906 53.539062 110.664062 Z M 48.785156 111.027344 C 49.125 110.882812 49.289062 110.492188 49.148438 110.152344 C 49.003906 109.808594 48.617188 109.644531 48.273438 109.789062 C 47.929688 109.929688 47.769531 110.324219 47.910156 110.664062 C 48.050781 111.003906 48.445312 111.167969 48.785156 111.027344 Z M 52.667969 120.394531 C 52.324219 120.535156 52.160156 120.925781 52.300781 121.269531 C 52.445312 121.609375 52.835938 121.773438 53.179688 121.632812 C 53.519531 121.492188 53.683594 121.097656 53.539062 120.757812 C 53.398438 120.414062 53.007812 120.25 52.667969 120.394531 Z M 50.722656 112.34375 C 48.867188 112.34375 47.359375 113.851562 47.359375 115.710938 C 47.359375 117.570312 48.867188 119.074219 50.722656 119.074219 C 52.585938 119.074219 54.089844 117.570312 54.089844 115.710938 C 54.089844 113.851562 52.585938 112.34375 50.722656 112.34375 Z M 56.285156 114.132812 C 56.625 113.988281 56.789062 113.601562 56.648438 113.257812 C 56.503906 112.914062 56.113281 112.753906 55.773438 112.894531 C 55.429688 113.039062 55.265625 113.429688 55.410156 113.769531 C 55.550781 114.109375 55.941406 114.273438 56.285156 114.132812 Z M 56.285156 117.289062 C 55.941406 117.148438 55.550781 117.308594 55.410156 117.652344 C 55.269531 117.992188 55.429688 118.382812 55.773438 118.527344 C 56.113281 118.667969 56.503906 118.503906 56.648438 118.164062 C 56.789062 117.820312 56.625 117.429688 56.285156 117.289062 Z M 54.308594 119.292969 C 54.046875 119.554688 54.046875 119.980469 54.308594 120.242188 C 54.570312 120.503906 54.996094 120.503906 55.257812 120.242188 C 55.519531 119.980469 55.519531 119.554688 55.257812 119.292969 C 54.996094 119.035156 54.570312 119.03125 54.308594 119.292969 Z M 50.722656 123.367188 C 49.566406 123.367188 48.628906 124.308594 48.628906 125.464844 C 48.628906 126.625 49.566406 127.5625 50.722656 127.5625 C 51.882812 127.5625 52.824219 126.625 52.824219 125.464844 C 52.824219 124.308594 51.882812 123.367188 50.722656 123.367188 Z M 50.722656 129.996094 C 50.722656 129.996094 49.367188 130 49.367188 131.816406 C 49.367188 133.628906 50.722656 177.863281 50.722656 177.863281 C 50.722656 177.863281 52.082031 133.628906 52.082031 131.816406 C 52.082031 130 50.722656 129.996094 50.722656 129.996094 Z M 47.140625 112.125 C 47.402344 111.863281 47.402344 111.4375 47.140625 111.175781 C 46.878906 110.917969 46.457031 110.917969 46.195312 111.175781 C 45.933594 111.4375 45.933594 111.863281 46.195312 112.125 C 46.457031 112.386719 46.878906 112.386719 47.140625 112.125 Z M 45.679688 112.894531 C 45.335938 112.753906 44.949219 112.914062 44.804688 113.253906 C 44.664062 113.597656 44.824219 113.992188 45.167969 114.128906 C 45.507812 114.273438 45.902344 114.113281 46.042969 113.769531 C 46.183594 113.429688 46.019531 113.035156 45.679688 112.894531 Z M 45.65625 115.710938 C 45.65625 115.339844 45.355469 115.039062 44.984375 115.039062 C 44.617188 115.039062 44.316406 115.339844 44.316406 115.707031 C 44.316406 116.078125 44.617188 116.378906 44.988281 116.378906 C 45.355469 116.378906 45.65625 116.078125 45.65625 115.710938 Z M 46.042969 117.652344 C 45.898438 117.308594 45.507812 117.144531 45.167969 117.285156 C 44.824219 117.429688 44.664062 117.820312 44.804688 118.164062 C 44.945312 118.503906 45.335938 118.667969 45.679688 118.523438 C 46.019531 118.382812 46.183594 117.992188 46.042969 117.652344 Z M 56.464844 115.039062 C 56.09375 115.039062 55.792969 115.339844 55.792969 115.710938 C 55.792969 116.082031 56.09375 116.378906 56.464844 116.378906 C 56.835938 116.378906 57.132812 116.082031 57.132812 115.710938 C 57.132812 115.339844 56.835938 115.039062 56.464844 115.039062 Z M 49.148438 121.265625 C 49.289062 120.925781 49.128906 120.535156 48.785156 120.394531 C 48.445312 120.25 48.050781 120.414062 47.910156 120.757812 C 47.769531 121.097656 47.929688 121.488281 48.273438 121.628906 C 48.613281 121.773438 49.003906 121.609375 49.148438 121.265625 Z M 46.191406 119.292969 C 45.933594 119.554688 45.933594 119.980469 46.191406 120.242188 C 46.453125 120.503906 46.878906 120.503906 47.140625 120.242188 C 47.402344 119.980469 47.402344 119.554688 47.140625 119.292969 C 46.878906 119.035156 46.453125 119.03125 46.191406 119.292969 Z M 54.3125 111.179688 C 54.050781 111.441406 54.046875 111.863281 54.308594 112.125 C 54.574219 112.386719 54.996094 112.386719 55.257812 112.125 C 55.519531 111.863281 55.519531 111.441406 55.257812 111.179688 C 54.996094 110.917969 54.570312 110.917969 54.3125 111.179688 Z M 45.019531 80.84375 C 46.40625 82.226562 47.335938 83.46875 47.816406 84.660156 C 46.121094 85.992188 43.601562 86.546875 40.015625 86.546875 C 43.601562 86.546875 46.121094 87.101562 47.816406 88.433594 C 47.335938 89.625 46.40625 90.867188 45.019531 92.253906 C 46.40625 90.867188 47.648438 89.9375 48.839844 89.457031 C 50.085938 91.039062 50.648438 93.351562 50.71875 96.578125 C 50.679688 98.753906 50.3125 100.316406 49.480469 101.375 C 48.691406 101.054688 47.871094 100.441406 46.957031 99.527344 C 47.871094 100.441406 48.484375 101.261719 48.804688 102.050781 C 47.683594 102.929688 46.015625 103.296875 43.648438 103.296875 C 46.015625 103.296875 47.683594 103.664062 48.804688 104.542969 C 48.484375 105.332031 47.871094 106.148438 46.957031 107.066406 C 47.871094 106.148438 48.691406 105.535156 49.480469 105.21875 C 50.359375 106.335938 50.722656 108.003906 50.722656 110.375 C 50.722656 108.003906 51.09375 106.335938 51.972656 105.214844 C 52.757812 105.535156 53.578125 106.148438 54.492188 107.066406 C 53.578125 106.148438 52.964844 105.332031 52.648438 104.542969 C 53.765625 103.664062 55.433594 103.296875 57.800781 103.296875 C 55.433594 103.296875 53.765625 102.929688 52.648438 102.050781 C 52.964844 101.261719 53.578125 100.441406 54.492188 99.527344 C 53.578125 100.441406 52.757812 101.058594 51.972656 101.375 C 51.136719 100.316406 50.769531 98.753906 50.730469 96.578125 C 50.800781 93.351562 51.363281 91.039062 52.613281 89.457031 C 53.804688 89.9375 55.046875 90.867188 56.429688 92.25 C 55.046875 90.867188 54.113281 89.625 53.632812 88.433594 C 55.328125 87.101562 57.851562 86.546875 61.4375 86.546875 C 57.851562 86.546875 55.328125 85.992188 53.632812 84.664062 C 54.113281 83.46875 55.046875 82.226562 56.429688 80.84375 C 55.046875 82.226562 53.804688 83.160156 52.613281 83.640625 C 51.277344 81.945312 50.722656 79.421875 50.722656 75.835938 C 50.722656 79.421875 50.171875 81.945312 48.839844 83.640625 C 47.648438 83.15625 46.40625 82.226562 45.019531 80.84375 Z M 67.480469 37.144531 C 67.234375 37.3125 67.167969 37.644531 67.332031 37.894531 C 67.496094 38.140625 67.832031 38.210938 68.082031 38.039062 C 68.324219 37.878906 68.394531 37.542969 68.226562 37.292969 C 68.0625 37.046875 67.730469 36.980469 67.480469 37.144531 Z M 46.242188 53.460938 C 49.585938 50.117188 51.871094 50.117188 55.210938 53.460938 C 51.871094 50.117188 51.871094 47.832031 55.210938 44.492188 C 51.871094 47.832031 49.585938 47.832031 46.242188 44.492188 C 49.585938 47.832031 49.585938 50.117188 46.242188 53.460938 Z M 46.730469 42.988281 L 21.785156 20.03125 L 44.738281 44.980469 C 44.671875 45.082031 44.613281 45.1875 44.550781 45.289062 L 31.671875 41.085938 L 43.75 47.214844 C 43.722656 47.34375 43.683594 47.46875 43.660156 47.601562 L 23.863281 48.976562 L 43.65625 50.347656 C 43.683594 50.480469 43.71875 50.609375 43.753906 50.738281 L 31.675781 56.867188 L 44.546875 52.660156 C 44.609375 52.765625 44.671875 52.871094 44.738281 52.972656 L 25.929688 73.773438 L 46.730469 54.964844 C 46.832031 55.03125 46.9375 55.09375 47.042969 55.152344 L 42.835938 68.027344 L 48.964844 55.949219 C 49.09375 55.984375 49.222656 56.019531 49.355469 56.046875 L 50.722656 75.835938 L 52.101562 56.042969 C 52.230469 56.019531 52.359375 55.984375 52.488281 55.949219 L 58.617188 68.027344 L 54.410156 55.152344 C 54.515625 55.09375 54.617188 55.03125 54.71875 54.964844 L 75.527344 73.773438 L 56.714844 52.972656 C 56.785156 52.871094 56.839844 52.765625 56.902344 52.664062 L 69.777344 56.867188 L 57.703125 50.738281 C 57.734375 50.609375 57.769531 50.480469 57.796875 50.347656 L 77.585938 48.972656 L 57.796875 47.597656 C 57.769531 47.46875 57.734375 47.339844 57.703125 47.214844 L 69.777344 41.085938 L 56.902344 45.289062 C 56.84375 45.1875 56.785156 45.082031 56.71875 44.984375 L 75.527344 24.179688 L 54.71875 42.988281 C 54.621094 42.917969 54.515625 42.859375 54.414062 42.800781 L 58.617188 29.921875 L 52.488281 42.003906 C 52.355469 41.972656 52.230469 41.933594 52.101562 41.90625 L 50.726562 22.113281 L 49.351562 41.910156 C 49.222656 41.933594 49.09375 41.972656 48.964844 42 L 42.835938 29.921875 L 47.039062 42.800781 C 46.9375 42.863281 46.832031 42.921875 46.730469 42.988281 Z M 48.1875 42.378906 L 48.507812 43.011719 L 49.257812 42.8125 C 49.335938 42.789062 49.417969 42.769531 49.5 42.753906 L 50.175781 42.636719 L 50.222656 41.957031 L 50.726562 34.683594 L 51.230469 41.953125 L 51.273438 42.621094 L 51.933594 42.75 C 52.023438 42.765625 52.121094 42.792969 52.210938 42.816406 L 52.894531 42.996094 L 53.265625 42.382812 L 54.273438 40.398438 L 53.582031 42.511719 L 53.367188 43.179688 L 54.039062 43.574219 C 54.101562 43.613281 54.160156 43.648438 54.222656 43.691406 L 54.800781 44.085938 L 55.3125 43.613281 L 64.835938 34.851562 L 56.074219 44.375 L 55.605469 44.882812 L 55.996094 45.457031 C 56.035156 45.523438 56.074219 45.582031 56.109375 45.644531 L 56.464844 46.25 L 57.175781 46.105469 L 59.289062 45.410156 L 57.304688 46.421875 L 56.675781 46.742188 L 56.875 47.5 C 56.902344 47.582031 56.921875 47.664062 56.9375 47.746094 L 57.066406 48.40625 L 57.734375 48.453125 L 65.015625 48.957031 L 57.734375 49.460938 L 57.066406 49.507812 L 56.9375 50.167969 C 56.921875 50.257812 56.894531 50.351562 56.871094 50.445312 L 56.6875 51.128906 L 57.304688 51.5 L 59.289062 52.507812 L 57.175781 51.816406 L 56.511719 51.601562 L 56.15625 52.199219 L 56.09375 52.300781 L 55.984375 52.484375 L 55.621094 53.050781 L 56.078125 53.546875 L 64.851562 63.085938 L 55.3125 54.308594 L 54.800781 53.839844 L 54.230469 54.230469 C 54.152344 54.277344 54.078125 54.320312 54.003906 54.367188 L 53.386719 54.71875 L 53.578125 55.402344 L 54.261719 57.5 L 53.265625 55.539062 L 52.945312 54.90625 L 52.199219 55.109375 C 52.117188 55.128906 52.035156 55.152344 51.957031 55.164062 L 51.277344 55.28125 L 51.230469 55.964844 L 50.726562 63.234375 L 50.222656 55.96875 L 50.175781 55.308594 L 49.53125 55.175781 C 49.414062 55.152344 49.300781 55.117188 49.1875 55.089844 L 48.507812 54.910156 L 48.1875 55.539062 L 47.1875 57.507812 L 47.871094 55.410156 L 48.085938 54.746094 L 47.398438 54.335938 C 47.34375 54.300781 47.285156 54.269531 47.226562 54.230469 L 46.652344 53.835938 L 46.140625 54.308594 L 36.601562 63.085938 L 45.378906 53.542969 L 45.847656 53.035156 L 45.457031 52.460938 C 45.410156 52.386719 45.363281 52.3125 45.320312 52.234375 L 44.964844 51.617188 L 44.28125 51.8125 L 42.1875 52.496094 L 44.148438 51.5 L 44.777344 51.179688 L 44.582031 50.445312 C 44.558594 50.351562 44.535156 50.257812 44.515625 50.167969 L 44.386719 49.507812 L 43.71875 49.464844 L 36.449219 48.960938 L 43.722656 48.453125 L 44.402344 48.410156 L 44.519531 47.730469 C 44.535156 47.652344 44.558594 47.566406 44.578125 47.488281 L 44.761719 46.804688 L 44.148438 46.417969 L 42.1875 45.421875 L 44.28125 46.105469 L 44.953125 46.324219 L 45.324219 45.679688 C 45.371094 45.601562 45.414062 45.519531 45.46875 45.4375 L 45.839844 44.871094 L 45.375 44.371094 L 36.621094 34.847656 L 46.140625 43.609375 L 46.636719 44.066406 L 47.203125 43.703125 L 47.386719 43.59375 L 47.488281 43.53125 L 48.085938 43.171875 L 47.871094 42.511719 L 47.179688 40.398438 Z M 70.734375 44.457031 C 70.441406 44.519531 70.25 44.796875 70.3125 45.089844 C 70.363281 45.382812 70.648438 45.574219 70.945312 45.515625 C 71.234375 45.457031 71.425781 45.171875 71.367188 44.878906 C 71.308594 44.589844 71.027344 44.402344 70.734375 44.457031 Z M 54.632812 29.394531 C 54.921875 29.457031 55.210938 29.269531 55.269531 28.972656 C 55.328125 28.683594 55.136719 28.398438 54.839844 28.339844 C 54.550781 28.28125 54.269531 28.46875 54.210938 28.765625 C 54.152344 29.054688 54.335938 29.335938 54.632812 29.394531 Z M 39.625 65.566406 C 39.378906 65.402344 39.042969 65.46875 38.878906 65.71875 C 38.710938 65.964844 38.78125 66.300781 39.023438 66.464844 C 39.273438 66.632812 39.605469 66.5625 39.773438 66.316406 C 39.9375 66.070312 39.875 65.734375 39.625 65.566406 Z M 61.808594 65.582031 C 61.5625 65.746094 61.496094 66.082031 61.660156 66.328125 C 61.824219 66.578125 62.160156 66.644531 62.40625 66.476562 C 62.65625 66.3125 62.722656 65.980469 62.554688 65.730469 C 62.390625 65.480469 62.058594 65.414062 61.808594 65.582031 Z M 70.304688 52.882812 C 70.246094 53.171875 70.4375 53.457031 70.730469 53.515625 C 71.019531 53.574219 71.304688 53.386719 71.363281 53.089844 C 71.421875 52.800781 71.230469 52.515625 70.941406 52.457031 C 70.648438 52.398438 70.363281 52.585938 70.304688 52.882812 Z M 46.84375 29.390625 C 47.136719 29.339844 47.328125 29.050781 47.265625 28.757812 C 47.207031 28.464844 46.925781 28.277344 46.628906 28.335938 C 46.339844 28.394531 46.152344 28.675781 46.210938 28.96875 C 46.265625 29.261719 46.546875 29.449219 46.84375 29.390625 Z M 31.148438 45.066406 C 31.207031 44.777344 31.015625 44.492188 30.71875 44.433594 C 30.433594 44.375 30.148438 44.566406 30.089844 44.863281 C 30.035156 45.152344 30.21875 45.433594 30.515625 45.492188 C 30.808594 45.550781 31.089844 45.367188 31.148438 45.066406 Z M 34.132812 37.871094 C 34.300781 37.628906 34.234375 37.292969 33.980469 37.125 C 33.738281 36.960938 33.402344 37.027344 33.238281 37.28125 C 33.070312 37.523438 33.136719 37.855469 33.386719 38.019531 C 33.632812 38.1875 33.964844 38.125 34.132812 37.871094 Z M 61.828125 32.378906 C 62.074219 32.550781 62.410156 32.484375 62.578125 32.230469 C 62.742188 31.984375 62.671875 31.652344 62.425781 31.484375 C 62.179688 31.320312 61.847656 31.386719 61.679688 31.636719 C 61.515625 31.882812 61.578125 32.214844 61.828125 32.378906 Z M 39.644531 32.367188 C 39.894531 32.207031 39.960938 31.871094 39.792969 31.621094 C 39.628906 31.375 39.292969 31.308594 39.042969 31.476562 C 38.796875 31.640625 38.730469 31.972656 38.898438 32.21875 C 39.0625 32.46875 39.394531 32.535156 39.644531 32.367188 Z M 67.320312 60.078125 C 67.152344 60.324219 67.222656 60.65625 67.472656 60.824219 C 67.714844 60.988281 68.050781 60.925781 68.214844 60.675781 C 68.382812 60.429688 68.316406 60.09375 68.066406 59.929688 C 67.820312 59.761719 67.484375 59.828125 67.320312 60.078125 Z M 47.242188 69.1875 C 47.304688 68.898438 47.113281 68.613281 46.820312 68.554688 C 46.527344 68.496094 46.246094 68.683594 46.1875 68.976562 C 46.128906 69.269531 46.320312 69.554688 46.613281 69.613281 C 46.902344 69.671875 47.183594 69.480469 47.242188 69.1875 Z M 33.96875 60.800781 C 34.21875 60.640625 34.289062 60.308594 34.117188 60.058594 C 33.957031 59.804688 33.621094 59.742188 33.371094 59.910156 C 33.125 60.070312 33.058594 60.410156 33.226562 60.660156 C 33.390625 60.90625 33.722656 60.96875 33.96875 60.800781 Z M 54.613281 68.558594 C 54.316406 68.617188 54.128906 68.898438 54.1875 69.191406 C 54.246094 69.484375 54.527344 69.675781 54.820312 69.617188 C 55.113281 69.558594 55.300781 69.273438 55.242188 68.980469 C 55.183594 68.691406 54.902344 68.5 54.613281 68.558594 Z M 30.71875 53.492188 C 31.011719 53.433594 31.203125 53.15625 31.140625 52.859375 C 31.089844 52.566406 30.800781 52.375 30.507812 52.433594 C 30.21875 52.492188 30.027344 52.777344 30.085938 53.074219 C 30.144531 53.363281 30.425781 53.550781 30.71875 53.492188 " fill-opacity="1" fill-rule="nonzero"/></g></svg>