<svg xmlns="http://www.w3.org/2000/svg" xmlns:xlink="http://www.w3.org/1999/xlink" width="1366" zoomAndPan="magnify" viewBox="0 0 1024.5 576" height="768" preserveAspectRatio="xMidYMid meet" version="1.0"><defs><clipPath id="4f3f8bc8a8"><path d="M 343.535156 22.46875 L 680.121094 22.46875 L 680.121094 70.898438 L 343.535156 70.898438 Z M 343.535156 22.46875 " clip-rule="nonzero"/></clipPath></defs><g clip-path="url(#4f3f8bc8a8)"><path fill="#d4af37" d="M 466.929688 43.714844 C 465.289062 43.714844 463.960938 45.046875 463.960938 46.683594 C 463.960938 48.324219 465.289062 49.652344 466.929688 49.652344 C 468.570312 49.652344 469.902344 48.324219 469.902344 46.683594 C 469.902344 45.046875 468.570312 43.714844 466.929688 43.714844 Z M 454.265625 45.488281 C 452.664062 45.488281 343.535156 46.683594 343.535156 46.683594 C 343.535156 46.683594 452.664062 47.882812 454.265625 47.882812 C 455.867188 47.882812 455.871094 46.683594 455.871094 46.683594 C 455.871094 46.683594 455.867188 45.488281 454.265625 45.488281 Z M 459.871094 44.832031 C 458.847656 44.832031 458.019531 45.660156 458.019531 46.683594 C 458.019531 47.707031 458.847656 48.535156 459.871094 48.535156 C 460.894531 48.535156 461.722656 47.707031 461.722656 46.683594 C 461.722656 45.660156 460.894531 44.832031 459.871094 44.832031 Z M 504.253906 58.273438 L 503.769531 57.953125 L 501.710938 62.074219 L 504.734375 58.59375 Z M 514.714844 60.355469 L 514.148438 60.46875 L 515.609375 64.851562 L 515.285156 60.242188 Z M 500.085938 53.945312 L 496.605469 56.96875 L 500.730469 54.910156 L 500.410156 54.429688 Z M 502.550781 56.949219 L 502.144531 56.542969 L 501.734375 56.128906 L 494.875 63.804688 Z M 511.417969 60.621094 L 512 70.898438 L 512.578125 60.621094 Z M 508.710938 60.242188 L 508.386719 64.847656 L 509.847656 60.46875 Z M 506.128906 59.339844 L 503.347656 67.578125 L 507.199219 59.785156 Z M 506.664062 33.808594 L 507.199219 33.585938 L 503.347656 25.792969 L 506.128906 34.03125 Z M 504.253906 35.09375 L 504.734375 34.773438 L 501.710938 31.292969 L 503.769531 35.417969 Z M 500.410156 38.941406 L 500.730469 38.460938 L 496.605469 36.402344 L 500.085938 39.425781 Z M 502.144531 36.832031 L 502.550781 36.417969 L 494.875 29.5625 L 501.734375 37.238281 Z M 509.277344 33.015625 L 509.847656 32.902344 L 508.386719 28.519531 L 508.710938 33.128906 Z M 512.578125 32.746094 L 512 22.46875 L 511.417969 32.746094 Z M 517.867188 34.03125 L 520.652344 25.792969 L 516.796875 33.585938 Z M 517.332031 59.5625 L 516.796875 59.785156 L 520.652344 67.578125 L 517.867188 59.339844 Z M 519.742188 35.09375 L 520.222656 35.417969 L 522.285156 31.292969 L 519.257812 34.773438 Z M 523.910156 39.425781 L 527.390625 36.402344 L 523.265625 38.460938 L 523.585938 38.941406 Z M 521.445312 36.417969 L 522.261719 37.238281 L 529.117188 29.5625 Z M 515.285156 33.128906 L 515.609375 28.519531 L 514.148438 32.902344 L 514.714844 33.015625 Z M 519.742188 58.273438 L 519.257812 58.59375 L 522.285156 62.078125 L 520.222656 57.953125 Z M 521.851562 56.542969 L 521.445312 56.949219 L 529.117188 63.804688 L 522.261719 56.132812 Z M 523.585938 54.429688 L 523.265625 54.910156 L 527.390625 56.96875 L 523.910156 53.945312 Z M 466.929688 42.210938 C 467.257812 42.210938 467.523438 41.945312 467.523438 41.617188 C 467.523438 41.292969 467.257812 41.027344 466.929688 41.027344 C 466.605469 41.027344 466.339844 41.292969 466.339844 41.617188 C 466.339844 41.945312 466.605469 42.210938 466.929688 42.210938 Z M 465.21875 42.550781 C 465.519531 42.421875 465.664062 42.078125 465.539062 41.777344 C 465.414062 41.476562 465.066406 41.332031 464.765625 41.457031 C 464.464844 41.582031 464.320312 41.929688 464.445312 42.230469 C 464.570312 42.53125 464.917969 42.675781 465.21875 42.550781 Z M 463.765625 43.519531 C 463.996094 43.289062 463.996094 42.914062 463.765625 42.683594 C 463.535156 42.453125 463.160156 42.453125 462.929688 42.683594 C 462.699219 42.914062 462.699219 43.289062 462.929688 43.519531 C 463.160156 43.75 463.535156 43.75 463.765625 43.519531 Z M 462.023438 45.292969 C 462.324219 45.417969 462.671875 45.273438 462.796875 44.972656 C 462.921875 44.671875 462.777344 44.324219 462.476562 44.199219 C 462.171875 44.074219 461.828125 44.21875 461.703125 44.519531 C 461.578125 44.820312 461.722656 45.167969 462.023438 45.292969 Z M 462.796875 48.394531 C 462.671875 48.09375 462.324219 47.953125 462.027344 48.078125 C 461.722656 48.203125 461.578125 48.550781 461.703125 48.851562 C 461.828125 49.152344 462.171875 49.292969 462.476562 49.171875 C 462.777344 49.046875 462.921875 48.699219 462.796875 48.394531 Z M 462.933594 49.851562 C 462.699219 50.078125 462.699219 50.453125 462.933594 50.683594 C 463.160156 50.917969 463.535156 50.917969 463.765625 50.683594 C 463.996094 50.453125 463.996094 50.078125 463.765625 49.847656 C 463.539062 49.617188 463.160156 49.617188 462.933594 49.851562 Z M 465.21875 50.820312 C 464.917969 50.695312 464.570312 50.839844 464.445312 51.140625 C 464.320312 51.441406 464.464844 51.785156 464.765625 51.910156 C 465.066406 52.039062 465.414062 51.894531 465.539062 51.589844 C 465.664062 51.289062 465.519531 50.945312 465.21875 50.820312 Z M 466.929688 51.15625 C 466.605469 51.15625 466.339844 51.425781 466.339844 51.75 C 466.339844 52.078125 466.605469 52.34375 466.933594 52.34375 C 467.257812 52.34375 467.523438 52.078125 467.523438 51.753906 C 467.523438 51.425781 467.257812 51.160156 466.929688 51.15625 Z M 468.644531 50.820312 C 468.34375 50.945312 468.199219 51.289062 468.324219 51.589844 C 468.449219 51.894531 468.796875 52.039062 469.097656 51.910156 C 469.398438 51.785156 469.542969 51.441406 469.417969 51.140625 C 469.292969 50.839844 468.945312 50.695312 468.644531 50.820312 Z M 470.09375 49.847656 C 469.863281 50.078125 469.867188 50.453125 470.097656 50.683594 C 470.328125 50.917969 470.703125 50.917969 470.933594 50.683594 C 471.164062 50.453125 471.164062 50.078125 470.933594 49.851562 C 470.703125 49.617188 470.328125 49.617188 470.09375 49.847656 Z M 471.839844 48.078125 C 471.535156 47.953125 471.191406 48.09375 471.0625 48.394531 C 470.941406 48.699219 471.085938 49.042969 471.386719 49.167969 C 471.6875 49.292969 472.035156 49.152344 472.15625 48.847656 C 472.285156 48.546875 472.140625 48.203125 471.839844 48.078125 Z M 471.0625 44.972656 C 471.191406 45.273438 471.535156 45.414062 471.839844 45.289062 C 472.140625 45.167969 472.285156 44.820312 472.15625 44.519531 C 472.035156 44.21875 471.6875 44.074219 471.386719 44.199219 C 471.085938 44.324219 470.941406 44.671875 471.0625 44.972656 Z M 470.933594 43.519531 C 471.164062 43.289062 471.164062 42.914062 470.933594 42.683594 C 470.703125 42.453125 470.328125 42.453125 470.097656 42.683594 C 469.867188 42.914062 469.867188 43.289062 470.09375 43.519531 C 470.328125 43.75 470.703125 43.75 470.933594 43.519531 Z M 468.644531 42.550781 C 468.945312 42.675781 469.289062 42.53125 469.414062 42.226562 C 469.542969 41.929688 469.398438 41.582031 469.09375 41.457031 C 468.792969 41.332031 468.449219 41.476562 468.324219 41.777344 C 468.199219 42.078125 468.34375 42.421875 468.644531 42.550781 Z M 564.125 44.832031 C 563.101562 44.832031 562.273438 45.660156 562.273438 46.683594 C 562.273438 47.707031 563.101562 48.535156 564.125 48.535156 C 565.148438 48.535156 565.976562 47.707031 565.976562 46.683594 C 565.976562 45.660156 565.148438 44.832031 564.125 44.832031 Z M 557.066406 43.714844 C 555.425781 43.714844 554.09375 45.046875 554.09375 46.683594 C 554.09375 48.324219 555.425781 49.652344 557.066406 49.652344 C 558.707031 49.652344 560.035156 48.324219 560.035156 46.683594 C 560.035156 45.046875 558.707031 43.714844 557.066406 43.714844 Z M 569.730469 45.488281 C 568.128906 45.488281 568.125 46.683594 568.125 46.683594 C 568.125 46.683594 568.128906 47.882812 569.730469 47.882812 C 571.332031 47.882812 680.460938 46.683594 680.460938 46.683594 C 680.460938 46.683594 571.332031 45.488281 569.730469 45.488281 Z M 552.355469 46.683594 C 550.261719 46.683594 548.789062 46.359375 547.804688 45.585938 C 548.085938 44.890625 548.625 44.164062 549.433594 43.359375 C 548.625 44.164062 547.902344 44.707031 547.207031 44.988281 C 546.429688 44 546.105469 42.527344 546.105469 40.4375 C 546.105469 42.527344 545.785156 44 545.007812 44.988281 C 544.3125 44.707031 543.585938 44.164062 542.777344 43.359375 C 543.585938 44.164062 544.128906 44.890625 544.414062 45.585938 C 543.488281 46.308594 542.148438 46.640625 540.277344 46.679688 C 537.378906 46.632812 535.300781 46.132812 533.886719 45.019531 C 534.3125 43.96875 535.132812 42.871094 536.355469 41.648438 C 535.132812 42.871094 534.035156 43.691406 532.984375 44.117188 C 531.808594 42.621094 531.320312 40.394531 531.320312 37.226562 C 531.320312 40.394531 530.832031 42.621094 529.65625 44.117188 C 528.601562 43.691406 527.507812 42.871094 526.285156 41.648438 C 527.507812 42.871094 528.328125 43.96875 528.753906 45.019531 C 527.464844 46.03125 525.636719 46.53125 523.132812 46.65625 C 519.6875 46.507812 517.179688 45.839844 515.425781 44.460938 C 515.996094 43.054688 517.09375 41.589844 518.726562 39.957031 C 517.09375 41.589844 515.628906 42.6875 514.222656 43.257812 C 512.652344 41.257812 512 38.28125 512 34.054688 C 512 38.28125 511.34375 41.257812 509.777344 43.257812 C 508.371094 42.6875 506.90625 41.589844 505.273438 39.957031 C 506.90625 41.589844 508.003906 43.054688 508.570312 44.460938 C 506.820312 45.839844 504.308594 46.507812 500.863281 46.65625 C 498.363281 46.53125 496.53125 46.03125 495.242188 45.019531 C 495.667969 43.96875 496.492188 42.871094 497.714844 41.648438 C 496.492188 42.871094 495.394531 43.691406 494.339844 44.117188 C 493.164062 42.621094 492.675781 40.394531 492.675781 37.226562 C 492.675781 40.394531 492.1875 42.621094 491.011719 44.117188 C 489.960938 43.691406 488.863281 42.871094 487.640625 41.648438 C 488.863281 42.871094 489.683594 43.96875 490.109375 45.019531 C 488.695312 46.132812 486.621094 46.632812 483.71875 46.679688 C 481.847656 46.640625 480.507812 46.308594 479.585938 45.585938 C 479.867188 44.890625 480.410156 44.164062 481.21875 43.359375 C 480.410156 44.164062 479.683594 44.707031 478.988281 44.988281 C 478.210938 44 477.890625 42.527344 477.890625 40.4375 C 477.890625 42.527344 477.566406 44 476.789062 44.988281 C 476.097656 44.707031 475.367188 44.164062 474.5625 43.359375 C 475.367188 44.164062 475.914062 44.890625 476.195312 45.585938 C 475.207031 46.359375 473.734375 46.683594 471.644531 46.683594 C 473.734375 46.683594 475.207031 47.007812 476.195312 47.785156 C 475.914062 48.480469 475.367188 49.203125 474.5625 50.011719 C 475.367188 49.203125 476.097656 48.664062 476.789062 48.378906 C 477.566406 49.367188 477.890625 50.839844 477.890625 52.929688 C 477.890625 50.839844 478.210938 49.367188 478.992188 48.378906 C 479.683594 48.664062 480.410156 49.203125 481.21875 50.011719 C 480.410156 49.203125 479.867188 48.480469 479.585938 47.785156 C 480.507812 47.0625 481.847656 46.730469 483.71875 46.6875 C 486.621094 46.738281 488.695312 47.234375 490.109375 48.347656 C 489.683594 49.402344 488.859375 50.5 487.640625 51.722656 C 488.859375 50.5 489.960938 49.679688 491.011719 49.253906 C 492.1875 50.75 492.675781 52.976562 492.675781 56.140625 C 492.675781 52.976562 493.164062 50.75 494.339844 49.253906 C 495.394531 49.679688 496.492188 50.496094 497.714844 51.722656 C 496.492188 50.496094 495.671875 49.402344 495.242188 48.347656 C 496.53125 47.339844 498.363281 46.835938 500.863281 46.714844 C 504.308594 46.859375 506.816406 47.53125 508.570312 48.910156 C 508 50.316406 506.902344 51.777344 505.273438 53.414062 C 506.902344 51.777344 508.371094 50.683594 509.777344 50.113281 C 511.34375 52.113281 512 55.085938 512 59.316406 C 512 55.085938 512.652344 52.113281 514.222656 50.113281 C 515.628906 50.683594 517.09375 51.777344 518.726562 53.410156 C 517.09375 51.777344 515.996094 50.316406 515.429688 48.910156 C 517.179688 47.53125 519.6875 46.859375 523.132812 46.714844 C 525.636719 46.835938 527.464844 47.339844 528.753906 48.347656 C 528.324219 49.402344 527.507812 50.496094 526.285156 51.722656 C 527.507812 50.496094 528.601562 49.679688 529.65625 49.253906 C 530.832031 50.75 531.320312 52.976562 531.320312 56.140625 C 531.320312 52.976562 531.808594 50.75 532.984375 49.253906 C 534.035156 49.679688 535.136719 50.5 536.355469 51.722656 C 535.136719 50.5 534.3125 49.402344 533.886719 48.347656 C 535.300781 47.234375 537.378906 46.738281 540.277344 46.6875 C 542.148438 46.730469 543.488281 47.0625 544.410156 47.785156 C 544.128906 48.480469 543.585938 49.203125 542.777344 50.011719 C 543.585938 49.203125 544.3125 48.664062 545.007812 48.378906 C 545.785156 49.367188 546.105469 50.839844 546.105469 52.929688 C 546.105469 50.839844 546.429688 49.367188 547.207031 48.378906 C 547.902344 48.664062 548.628906 49.203125 549.433594 50.011719 C 548.628906 49.203125 548.085938 48.480469 547.804688 47.785156 C 548.792969 47.007812 550.261719 46.683594 552.355469 46.683594 Z M 557.066406 42.210938 C 557.390625 42.210938 557.65625 41.945312 557.65625 41.617188 C 557.65625 41.292969 557.390625 41.027344 557.066406 41.027344 C 556.738281 41.027344 556.472656 41.292969 556.472656 41.617188 C 556.472656 41.945312 556.738281 42.210938 557.066406 42.210938 Z M 558.777344 42.550781 C 559.078125 42.675781 559.425781 42.53125 559.550781 42.230469 C 559.675781 41.929688 559.53125 41.582031 559.230469 41.457031 C 558.929688 41.332031 558.582031 41.476562 558.457031 41.777344 C 558.335938 42.078125 558.476562 42.421875 558.777344 42.550781 Z M 561.066406 43.519531 C 561.296875 43.289062 561.296875 42.914062 561.066406 42.683594 C 560.835938 42.453125 560.460938 42.453125 560.230469 42.683594 C 560 42.914062 560 43.289062 560.230469 43.519531 C 560.460938 43.75 560.835938 43.75 561.066406 43.519531 Z M 561.199219 44.972656 C 561.328125 45.273438 561.671875 45.417969 561.972656 45.292969 C 562.273438 45.167969 562.417969 44.820312 562.292969 44.519531 C 562.167969 44.21875 561.820312 44.074219 561.519531 44.199219 C 561.21875 44.324219 561.074219 44.671875 561.199219 44.972656 Z M 561.972656 48.078125 C 561.671875 47.953125 561.324219 48.09375 561.199219 48.394531 C 561.074219 48.699219 561.21875 49.046875 561.519531 49.171875 C 561.820312 49.292969 562.167969 49.152344 562.292969 48.851562 C 562.417969 48.550781 562.273438 48.203125 561.972656 48.078125 Z M 560.230469 49.847656 C 560 50.078125 560 50.453125 560.230469 50.683594 C 560.460938 50.917969 560.835938 50.917969 561.066406 50.683594 C 561.296875 50.453125 561.296875 50.078125 561.066406 49.851562 C 560.835938 49.617188 560.460938 49.617188 560.230469 49.847656 Z M 558.777344 50.820312 C 558.476562 50.945312 558.332031 51.289062 558.457031 51.589844 C 558.582031 51.894531 558.929688 52.039062 559.230469 51.910156 C 559.53125 51.785156 559.675781 51.441406 559.550781 51.140625 C 559.425781 50.839844 559.078125 50.695312 558.777344 50.820312 Z M 557.066406 51.15625 C 556.738281 51.160156 556.472656 51.425781 556.472656 51.753906 C 556.472656 52.078125 556.738281 52.34375 557.0625 52.34375 C 557.390625 52.34375 557.65625 52.078125 557.65625 51.75 C 557.65625 51.425781 557.390625 51.15625 557.066406 51.15625 Z M 555.351562 50.820312 C 555.050781 50.695312 554.703125 50.839844 554.578125 51.140625 C 554.453125 51.441406 554.597656 51.785156 554.898438 51.910156 C 555.199219 52.039062 555.550781 51.894531 555.671875 51.589844 C 555.796875 51.289062 555.65625 50.945312 555.351562 50.820312 Z M 553.066406 49.851562 C 552.835938 50.078125 552.832031 50.453125 553.066406 50.683594 C 553.292969 50.917969 553.671875 50.917969 553.898438 50.683594 C 554.128906 50.453125 554.132812 50.078125 553.898438 49.847656 C 553.671875 49.617188 553.292969 49.617188 553.066406 49.851562 Z M 552.933594 48.394531 C 552.804688 48.09375 552.460938 47.953125 552.160156 48.078125 C 551.855469 48.203125 551.710938 48.546875 551.839844 48.847656 C 551.960938 49.152344 552.308594 49.292969 552.609375 49.167969 C 552.910156 49.042969 553.058594 48.699219 552.933594 48.394531 Z M 552.160156 45.289062 C 552.460938 45.414062 552.804688 45.273438 552.933594 44.972656 C 553.054688 44.671875 552.910156 44.324219 552.609375 44.199219 C 552.308594 44.074219 551.960938 44.21875 551.839844 44.519531 C 551.710938 44.820312 551.855469 45.167969 552.160156 45.289062 Z M 553.898438 43.519531 C 554.128906 43.289062 554.132812 42.914062 553.898438 42.683594 C 553.671875 42.453125 553.292969 42.453125 553.066406 42.683594 C 552.832031 42.914062 552.832031 43.289062 553.066406 43.519531 C 553.292969 43.75 553.671875 43.75 553.898438 43.519531 Z M 555.351562 42.550781 C 555.65625 42.421875 555.796875 42.078125 555.671875 41.777344 C 555.546875 41.476562 555.203125 41.332031 554.902344 41.457031 C 554.597656 41.582031 554.453125 41.929688 554.582031 42.226562 C 554.707031 42.53125 555.050781 42.675781 555.351562 42.550781 " fill-opacity="1" fill-rule="nonzero"/></g></svg>